<svg xmlns="http://www.w3.org/2000/svg" width="1600" height="1000" viewBox="0 0 1600 1000" role="img" aria-label="Maison Store curated goods">
  <defs>
    <linearGradient id="bg" x1="0" x2="1" y1="0" y2="1"><stop offset="0" stop-color="#233331"/><stop offset=".48" stop-color="#647c70"/><stop offset="1" stop-color="#d7c59b"/></linearGradient>
    <linearGradient id="table" x1="0" x2="1"><stop offset="0" stop-color="#1b2423"/><stop offset="1" stop-color="#4a5e58"/></linearGradient>
    <radialGradient id="glow" cx=".78" cy=".22" r=".58"><stop offset="0" stop-color="#fff0c6" stop-opacity=".85"/><stop offset=".54" stop-color="#d0a958" stop-opacity=".28"/><stop offset="1" stop-color="#101615" stop-opacity="0"/></radialGradient>
    <filter id="shadow" x="-20%" y="-20%" width="140%" height="150%"><feDropShadow dx="0" dy="34" stdDeviation="28" flood-color="#0b1110" flood-opacity=".38"/></filter>
  </defs>
  <rect width="1600" height="1000" fill="url(#bg)"/>
  <rect width="1600" height="1000" fill="url(#glow)"/>
  <path d="M0 720 C230 620 380 760 600 665 C835 560 1030 650 1206 570 C1360 500 1490 520 1600 455 L1600 1000 L0 1000 Z" fill="url(#table)" opacity=".9"/>
  <g filter="url(#shadow)">
    <rect x="930" y="250" width="300" height="510" rx="24" fill="#f4efe3"/>
    <rect x="968" y="294" width="224" height="365" rx="18" fill="#16201f"/>
    <rect x="1015" y="342" width="130" height="130" rx="65" fill="#d1aa5d"/>
    <circle cx="1080" cy="407" r="48" fill="#f4efe3"/>
    <rect x="1000" y="690" width="160" height="24" rx="12" fill="#c88d63"/>
  </g>
  <g filter="url(#shadow)">
    <rect x="675" y="430" width="268" height="260" rx="26" fill="#c36f48"/>
    <path d="M726 430 C738 333 870 333 890 430" fill="none" stroke="#f5e9d8" stroke-width="22" stroke-linecap="round"/>
    <rect x="718" y="490" width="180" height="26" rx="13" fill="#f5e9d8" opacity=".9"/>
    <rect x="718" y="540" width="120" height="18" rx="9" fill="#f5e9d8" opacity=".55"/>
  </g>
  <g filter="url(#shadow)">
    <ellipse cx="1265" cy="705" rx="170" ry="54" fill="#101615" opacity=".18"/>
    <rect x="1130" y="335" width="270" height="370" rx="135" fill="#182321"/>
    <rect x="1170" y="378" width="190" height="278" rx="95" fill="#e8d8b4"/>
    <rect x="1238" y="425" width="54" height="184" rx="27" fill="#121918"/>
  </g>
  <g opacity=".4">
    <circle cx="390" cy="250" r="170" fill="#f7ead1"/>
    <circle cx="430" cy="290" r="140" fill="#879c91"/>
    <circle cx="360" cy="330" r="95" fill="#c36f48"/>
  </g>
</svg>
